# xmcd
#
# Track frame offsets:
#	150
#	15139
#	40277
#	59200
#	78723
#	98565
#	148591
#	173892
#	193166
#
# Disc length: 2877 seconds
#
# Revision: 1
# Processed by: cddbd v1.5.2PL0 Copyright (c) Steve Scherf et al.
# Submitted via: audiograbber 1.83.01
#
DISCID=770b3b09
DTITLE=NRPS - 71-04-28 Fillmore East, New York NY
DYEAR=1900
DGENRE=
TTITLE0=Six Days On The Road
TTITLE1=Running Back To You
TTITLE2=I Don't Know You
TTITLE3=Sailing Song
TTITLE4=Henry
TTITLE5=Dirty Business
TTITLE6=Superman
TTITLE7=Lodi
TTITLE8=Glendale Train
EXTD=
EXTT0=
EXTT1=
EXTT2=
EXTT3=
EXTT4=
EXTT5=
EXTT6=
EXTT7=
EXTT8=
PLAYORDER=
